<?xml version="1.0" encoding="UTF-8"?>
<svg xmlns="http://www.w3.org/2000/svg" width="387.446" height="82.121" viewBox="0 0 387.446 82.121">
  <g id="Simplix-logo" transform="translate(-56.157 -208.888)">
    <path id="Path_120" data-name="Path 120" d="M420.719,210.109v22.884H443.6V210.109Zm17.964,9.392a33.315,33.315,0,0,0-4.7-.372c-1.938,0-2.385.3-2.385.82,0,.447.3.6,2.832.6,1.864,0,3.429.074,3.429,2.534a6.72,6.72,0,0,1-.745,2.684c-.969,1.64-2.609,1.938-5.815,1.938a39.727,39.727,0,0,1-6.932-.522l.895-2.907a45.822,45.822,0,0,0,5.516.373c.521,0,1.64,0,1.64-.746,0-.6-.3-.671-3.206-.671-1.49,0-3.13-.522-3.13-2.31,0-2.46,1.267-4.473,3.2-5.069a16.691,16.691,0,0,1,3.876-.373,44.033,44.033,0,0,1,6.559.447Z" fill="#c11630"></path>
    <path id="Path_121" data-name="Path 121" d="M429.291,215.849c-1.938.6-3.2,2.609-3.2,5.069,0,1.788,1.64,2.31,3.13,2.31,2.907,0,3.206.075,3.206.671,0,.746-1.119.746-1.64.746a45.822,45.822,0,0,1-5.516-.373l-.895,2.907a39.727,39.727,0,0,0,6.932.522c3.206,0,4.846-.3,5.815-1.938a6.72,6.72,0,0,0,.745-2.684c0-2.46-1.565-2.534-3.429-2.534-2.534,0-2.832-.149-2.832-.6,0-.522.447-.82,2.385-.82a33.315,33.315,0,0,1,4.7.372l1.043-3.578a44.033,44.033,0,0,0-6.559-.447A16.691,16.691,0,0,0,429.291,215.849Z" fill="#fff"></path>
    <path id="Path_122" data-name="Path 122" d="M420.719,210.109v22.884H443.6V210.109Zm17.964,9.392a33.315,33.315,0,0,0-4.7-.372c-1.938,0-2.385.3-2.385.82,0,.447.3.6,2.832.6,1.864,0,3.429.074,3.429,2.534a6.72,6.72,0,0,1-.745,2.684c-.969,1.64-2.609,1.938-5.815,1.938a39.727,39.727,0,0,1-6.932-.522l.895-2.907a45.822,45.822,0,0,0,5.516.373c.521,0,1.64,0,1.64-.746,0-.6-.3-.671-3.206-.671-1.49,0-3.13-.522-3.13-2.31,0-2.46,1.267-4.473,3.2-5.069a16.691,16.691,0,0,1,3.876-.373,44.033,44.033,0,0,1,6.559.447Z" fill="#fc1c3b"></path>
    <path id="Path_123" data-name="Path 123" d="M59.122,243.5a178.213,178.213,0,0,0,21.79,1.483c2.075,0,6.6,0,6.6-2.965,0-2.223-1.186-2.668-12.6-2.668-5.856,0-12.3-2-12.3-9.117,0-9.857,5.114-17.787,12.748-20.011,4.3-1.186,10.451-1.334,15.194-1.334a184.074,184.074,0,0,1,25.941,1.705l-4,14.082a156,156,0,0,0-18.6-1.408c-7.56,0-9.412,1.111-9.412,3.261,0,1.853,1.26,2.371,11.265,2.371,7.264,0,13.638.3,13.638,9.858a25.466,25.466,0,0,1-2.965,10.747c-3.928,6.374-10.3,7.56-22.9,7.56a155.406,155.406,0,0,1-27.349-2.076Z" fill="#fff"></path>
    <path id="Path_124" data-name="Path 124" d="M124.863,210.222h19.493L131.978,255.8h-19.2Z" fill="#fff"></path>
    <path id="Path_125" data-name="Path 125" d="M152.583,210.222h26.978v24.533h.148l13.49-24.533h26.682L207.5,255.8H188.455l6.374-24.162h-.148L179.635,255.73h-11.34l-1.778-24.9h-.149l-6.744,24.9H140.872Z" fill="#fff"></path>
    <path id="Path_126" data-name="Path 126" d="M227.44,210.222h35.873c10.154,0,12.674,3.632,12.674,11.192,0,4.891-2.075,23.939-17.714,23.939h-20.9L234.407,255.8H214.915Zm12.452,24.088h9.783c2.224,0,6.078-1.334,6.078-7.189,0-2.52-1.26-3.558-3.928-3.558h-8.894Z" fill="#fff"></path>
    <path id="Path_127" data-name="Path 127" d="M284.584,210.222H304.3l-7.708,29.943H316.38L312.3,255.8h-39.43Z" fill="#fff"></path>
    <path id="Path_128" data-name="Path 128" d="M330.314,210.222h19.493L337.429,255.8h-19.2Z" fill="#fff"></path>
    <path id="Path_129" data-name="Path 129" d="M377.156,242.463,367.447,255.8H342.469l20.086-22.383-7.263-23.2H377.3l2.965,13.934,9.487-13.934h24.681l-20.9,23.2,7.041,22.383h-20.9Z" fill="#fff"></path>
    <g id="Group_94" data-name="Group 94">
      <path id="Path_130" data-name="Path 130" d="M71.417,290.625l-.077-7.6-3.607,6.14H65.277l-3.607-5.833V290.7H56.528V273.971h4.6l5.449,8.9,5.295-8.9h4.605l.077,16.731H71.417Z" fill="#fff"></path>
      <path id="Path_131" data-name="Path 131" d="M90.681,287.709h-6.37l-1.152,2.916H77.4l7.291-16.731H90.22l7.292,16.731H91.679Zm-1.535-4.068-1.612-4.221-1.612,4.221Z" fill="#fff"></path>
      <path id="Path_132" data-name="Path 132" d="M110.789,287.709h-6.37l-1.151,2.916H97.512l7.291-16.731h5.526l7.291,16.731h-5.833Zm-1.535-4.068-1.612-4.221-1.611,4.221Z" fill="#fff"></path>
      <path id="Path_133" data-name="Path 133" d="M125.448,285.1l-1.228,1.382v4.144h-5.526V273.894h5.526v6.063l5.526-6.063h6.14l-6.677,7.368,6.984,9.363h-6.524Z" fill="#fff"></path>
      <path id="Path_134" data-name="Path 134" d="M139.186,278.269h-4.912v-4.375H149.7v4.375h-4.912v12.356h-5.6V278.269Z" fill="#fff"></path>
      <path id="Path_135" data-name="Path 135" d="M163.362,277.962a2.8,2.8,0,0,1,.384,1.612,2.839,2.839,0,0,1-.921,2.225,3.563,3.563,0,0,1-4.6,0,2.839,2.839,0,0,1-.921-2.225,6.772,6.772,0,0,1,.153-1.228,12.023,12.023,0,0,1,.768-1.919l1.688-3.531h3.377l-1.228,4.068A2.009,2.009,0,0,1,163.362,277.962Z" fill="#fff"></path>
      <path id="Path_136" data-name="Path 136" d="M169.732,278.269H164.82v-4.375h15.427v4.375h-4.912v12.356h-5.6V278.269Z" fill="#fff"></path>
      <path id="Path_137" data-name="Path 137" d="M192.834,289.858a8.341,8.341,0,0,1-3.377-3.147,8.179,8.179,0,0,1-1.228-4.528,8.354,8.354,0,0,1,1.228-4.528,8.9,8.9,0,0,1,3.377-3.147,10.731,10.731,0,0,1,9.67,0,8.347,8.347,0,0,1,3.377,3.147,8.185,8.185,0,0,1,1.228,4.528,8.365,8.365,0,0,1-1.228,4.528,8.9,8.9,0,0,1-3.377,3.147,10.225,10.225,0,0,1-4.835,1.151A9.8,9.8,0,0,1,192.834,289.858Zm6.754-3.914a4.228,4.228,0,0,0,1.381-1.459,4.88,4.88,0,0,0,0-4.451,3.179,3.179,0,0,0-1.381-1.458,3.99,3.99,0,0,0-1.919-.537,3.462,3.462,0,0,0-1.919.537,4.216,4.216,0,0,0-1.381,1.458,5.011,5.011,0,0,0-.538,2.226,4.16,4.16,0,0,0,.538,2.225,3.62,3.62,0,0,0,1.381,1.459,3.987,3.987,0,0,0,1.919.537A4.243,4.243,0,0,0,199.588,285.944Z" fill="#fff"></path>
      <path id="Path_138" data-name="Path 138" d="M225.6,273.894v16.731H221l-6.371-7.6v7.6H209.1V273.894h4.6l6.371,7.6v-7.6Z" fill="#fff"></path>
      <path id="Path_139" data-name="Path 139" d="M228.368,273.894h5.6v12.357h7.521v4.374h-13.2V273.894Z" fill="#fff"></path>
      <path id="Path_140" data-name="Path 140" d="M243.1,273.894h5.6v16.731h-5.6Z" fill="#fff"></path>
      <path id="Path_141" data-name="Path 141" d="M267.894,273.894v16.731h-4.605l-6.37-7.6v7.6h-5.526V273.894H256l6.37,7.6v-7.6Z" fill="#fff"></path>
      <path id="Path_142" data-name="Path 142" d="M284.549,286.4v4.221H270.657V273.894h13.585v4.221h-8.059v2h7.061v4.067h-7.061V286.4Z" fill="#fff"></path>
      <path id="Path_143" data-name="Path 143" d="M308.8,290.625l-.076-7.6-3.608,6.14h-2.456l-3.607-5.833V290.7h-5.142V273.971h4.605l5.449,8.9,5.3-8.9h4.605l.076,16.731H308.8Z" fill="#fff"></path>
      <path id="Path_144" data-name="Path 144" d="M328.065,287.709H321.7l-1.151,2.916h-5.68l7.292-16.731h5.526l7.291,16.731H329.14Zm-1.611-4.068-1.612-4.221-1.612,4.221Z" fill="#fff"></path>
      <path id="Path_145" data-name="Path 145" d="M342.724,285.1l-1.228,1.382v4.144H335.97V273.894H341.5v6.063l5.526-6.063h6.14l-6.677,7.368,6.984,9.363h-6.524Z" fill="#fff"></path>
      <path id="Path_146" data-name="Path 146" d="M360.991,285.1l-1.228,1.382v4.144h-5.526V273.894h5.526v6.063l5.525-6.063h6.14l-6.677,7.368,6.984,9.363h-6.523Z" fill="#fff"></path>
      <path id="Path_147" data-name="Path 147" d="M386.318,286.4v4.221H372.426V273.894h13.585v4.221h-8.059v2h7.061v4.067h-7.061V286.4Z" fill="#fff"></path>
      <path id="Path_148" data-name="Path 148" d="M388.467,273.894h5.6v12.357h7.522v4.374h-13.2V273.894Z" fill="#fff"></path>
      <path id="Path_149" data-name="Path 149" d="M403.2,273.894h5.6v16.731h-5.6Z" fill="#fff"></path>
      <path id="Path_150" data-name="Path 150" d="M412.259,290.395a6.454,6.454,0,0,1-2.61-1.842l3.07-3.607a6.222,6.222,0,0,0,1.3,1.228,2.145,2.145,0,0,0,1.305.384,1.641,1.641,0,0,0,1.381-.538,2.29,2.29,0,0,0,.461-1.535v-6.37h-5.68v-4.221h11.282v10.284a6.953,6.953,0,0,1-1.765,5.143,7.048,7.048,0,0,1-5.142,1.688A10.432,10.432,0,0,1,412.259,290.395Z" fill="#fff"></path>
      <path id="Path_151" data-name="Path 151" d="M432.137,285.1l-1.228,1.382v4.144h-5.526V273.894h5.526v6.063l5.526-6.063h6.14l-6.678,7.368,6.985,9.363h-6.524Z" fill="#fff"></path>
    </g>
  </g>
</svg>
