<?xml version="1.0" encoding="UTF-8"?>
<svg xmlns="http://www.w3.org/2000/svg" width="20" height="20" viewBox="0 0 256 256">
  <g id="Simplix-favicon" transform="translate(-3533 -666)">
    <rect id="Rectangle_89" data-name="Rectangle 89" width="20" height="20" transform="translate(3533 666)" fill="#fff"></rect>
    <path id="Path_122" data-name="Path 122" d="M420.719,210.109v256h256v-256ZM621.706,315.176a372.813,372.813,0,0,0-52.585-4.161c-21.683,0-26.684,3.356-26.684,9.173,0,5,3.356,6.712,31.685,6.712,20.855,0,38.365.828,38.365,28.347a75.185,75.185,0,0,1-8.336,30.025c-10.84,18.347-29.19,21.68-65.059,21.68a444.549,444.549,0,0,1-77.557-5.84l10.013-32.52a512.669,512.669,0,0,0,61.715,4.173c5.829,0,18.349,0,18.349-8.346,0-6.712-3.356-7.506-35.87-7.506-16.67,0-35.019-5.84-35.019-25.842,0-27.52,14.175-50.039,35.8-56.706a186.765,186.765,0,0,1,43.366-4.173,492.723,492.723,0,0,1,73.384,5Z" transform="translate(3112.281 455.891)" fill="#a7aaad"></path>
  </g>
</svg>
